<svg width="78" height="13" viewBox="0 0 78 13" xmlns="http://www.w3.org/2000/svg"><path d="M7 10.5l-4.114 2.163.785-4.581L.343 4.837l4.6-.669L7 0l2.057 4.168 4.6.669-3.328 3.245.785 4.581zm32 0l-4.114 2.163.785-4.581-3.328-3.245 4.6-.669L39 0l2.057 4.168 4.6.669-3.328 3.245.785 4.581zm-16 0l-4.114 2.163.785-4.581-3.328-3.245 4.6-.669L23 0l2.057 4.168 4.6.669-3.328 3.245.785 4.581zm32 0l-4.114 2.163.785-4.581-3.328-3.245 4.6-.669L55 0l2.057 4.168 4.6.669-3.328 3.245.785 4.581zm16 0l-4.114 2.163.785-4.581-3.328-3.245 4.6-.669L71 0l2.057 4.168 4.6.669-3.328 3.245.785 4.581z" fill="#FFC100"/></svg>